<svg xmlns="http://www.w3.org/2000/svg" width="180" height="180" viewBox="0 0 180 180" shape-rendering="crispEdges" role="img" aria-label="3 integrated inside B N1, G03 Deep Jade"><rect width="180" height="180" fill="#082924"/><rect x="25.40" y="44.80" width="11.70" height="11.70" fill="#EAFBF3"/><rect x="37.80" y="44.80" width="11.70" height="11.70" fill="#EAFBF3"/><rect x="50.20" y="44.80" width="11.70" height="11.70" fill="#EAFBF3"/><rect x="62.60" y="44.80" width="11.70" height="11.70" fill="#EAFBF3"/><rect x="75.00" y="44.80" width="11.70" height="11.70" fill="#49DEB2"/><rect x="87.40" y="44.80" width="11.70" height="11.70" fill="#49DEB2"/><rect x="99.80" y="44.80" width="11.70" height="11.70" fill="#49DEB2"/><rect x="25.40" y="57.20" width="11.70" height="11.70" fill="#EAFBF3"/><rect x="37.80" y="57.20" width="11.70" height="11.70" fill="#EAFBF3"/><rect x="112.20" y="57.20" width="11.70" height="11.70" fill="#49DEB2"/><rect x="25.40" y="69.60" width="11.70" height="11.70" fill="#EAFBF3"/><rect x="37.80" y="69.60" width="11.70" height="11.70" fill="#EAFBF3"/><rect x="124.60" y="69.60" width="11.70" height="11.70" fill="#49DEB2"/><rect x="25.40" y="82.00" width="11.70" height="11.70" fill="#EAFBF3"/><rect x="37.80" y="82.00" width="11.70" height="11.70" fill="#EAFBF3"/><rect x="112.20" y="82.00" width="11.70" height="11.70" fill="#49DEB2"/><rect x="25.40" y="94.40" width="11.70" height="11.70" fill="#EAFBF3"/><rect x="37.80" y="94.40" width="11.70" height="11.70" fill="#EAFBF3"/><rect x="50.20" y="94.40" width="11.70" height="11.70" fill="#EAFBF3"/><rect x="62.60" y="94.40" width="11.70" height="11.70" fill="#EAFBF3"/><rect x="75.00" y="94.40" width="11.70" height="11.70" fill="#92D5BE"/><rect x="87.40" y="94.40" width="11.70" height="11.70" fill="#92D5BE"/><rect x="99.80" y="94.40" width="11.70" height="11.70" fill="#92D5BE"/><rect x="25.40" y="106.80" width="11.70" height="11.70" fill="#EAFBF3"/><rect x="37.80" y="106.80" width="11.70" height="11.70" fill="#EAFBF3"/><rect x="112.20" y="106.80" width="11.70" height="11.70" fill="#49DEB2"/><rect x="25.40" y="119.20" width="11.70" height="11.70" fill="#EAFBF3"/><rect x="37.80" y="119.20" width="11.70" height="11.70" fill="#EAFBF3"/><rect x="124.60" y="119.20" width="11.70" height="11.70" fill="#49DEB2"/><rect x="25.40" y="131.60" width="11.70" height="11.70" fill="#EAFBF3"/><rect x="37.80" y="131.60" width="11.70" height="11.70" fill="#EAFBF3"/><rect x="112.20" y="131.60" width="11.70" height="11.70" fill="#49DEB2"/><rect x="25.40" y="144.00" width="11.70" height="11.70" fill="#EAFBF3"/><rect x="37.80" y="144.00" width="11.70" height="11.70" fill="#EAFBF3"/><rect x="50.20" y="144.00" width="11.70" height="11.70" fill="#EAFBF3"/><rect x="62.60" y="144.00" width="11.70" height="11.70" fill="#EAFBF3"/><rect x="75.00" y="144.00" width="11.70" height="11.70" fill="#49DEB2"/><rect x="87.40" y="144.00" width="11.70" height="11.70" fill="#49DEB2"/><rect x="99.80" y="144.00" width="11.70" height="11.70" fill="#49DEB2"/></svg>